<svg width="361" height="364" viewBox="0 0 361 364" fill="none" xmlns="http://www.w3.org/2000/svg">
<g clip-path="url(#clip0_25_292)">
<rect width="361" height="364" fill="white"/>
<path d="M397.1 -36.4H-36.1V400.4H397.1V-36.4Z" fill="white"/>
<path d="M397.1 -36.4H-36.1V400.4H397.1V-36.4Z" fill="white"/>
<path d="M397.1 -36.4H-36.1V400.4H397.1V-36.4Z" fill="#17162E"/>
<path d="M126.953 218.571C127.592 219.28 128.103 220.171 128.487 221.241C128.878 222.314 129.074 223.592 129.074 225.078V242.368C129.074 243.987 128.878 245.348 128.487 246.448C128.103 247.551 127.592 248.427 126.953 249.072L123.674 252.56C123.031 253.148 122.132 253.603 120.981 253.925C119.827 254.251 118.544 254.41 117.13 254.41H105.187C99.9829 254.41 97.3807 251.949 97.3807 247.024V220.316C97.3807 215.273 99.9829 212.747 105.187 212.747H116.739C119.815 212.941 122.034 213.619 123.388 214.78L125.118 216.63L126.953 218.571ZM109.805 216.524C106.015 216.524 104.119 218.37 104.119 222.06V245.28C104.119 248.973 106.045 250.816 109.895 250.816H112.122C115.01 250.876 117.191 250.296 118.665 249.072L120.018 247.904C121.553 246.216 122.32 244.211 122.32 241.883V225.472C122.199 224.433 121.944 223.425 121.553 222.454C121.169 221.483 120.564 220.543 119.733 219.633L118.755 218.662C117.992 217.957 117.093 217.476 116.062 217.222C115.04 216.96 113.915 216.729 112.693 216.524H109.805Z" fill="white"/>
<path d="M133.595 250.619C137.254 250.619 139.085 248.905 139.085 245.477L139.176 217.206C139.176 213.839 140.266 212.156 142.455 212.156C144.7 212.156 145.824 213.809 145.824 217.115V247.024C145.824 251.949 143.256 254.41 138.123 254.41H131.474C129.226 254.41 128.105 253.83 128.105 252.666C128.105 251.301 129.323 250.619 131.76 250.619H133.595Z" fill="white"/>
<path d="M194.955 241.109V247.813C194.955 252.211 192.285 254.41 186.952 254.41H171.068C165.864 254.41 163.262 252.112 163.262 247.509V219.83C163.262 215.11 165.864 212.747 171.068 212.747H186.952C192.285 212.747 194.955 215.015 194.955 219.542V224.198C194.631 226.14 193.247 228.088 190.803 230.037C189.84 230.807 189.359 231.645 189.359 232.555C189.359 233.397 189.81 234.239 190.713 235.088C193.277 237.484 194.691 239.494 194.955 241.109ZM186.095 238.485L183.297 236.347C182.583 235.831 181.842 235.414 181.071 235.088C180.308 234.766 179.604 234.603 178.965 234.603H175.686C171.896 234.603 170 236.9 170 241.488V245.568C170 249.068 171.926 250.816 175.776 250.816H183.387C186.595 250.816 188.201 249.231 188.201 246.053V241.776C188.201 241.333 187.99 240.836 187.569 240.29C187.155 239.736 186.667 239.134 186.095 238.485ZM186.095 226.928C186.667 226.344 187.155 225.696 187.569 224.987C187.99 224.27 188.201 223.394 188.201 222.363V220.225C188.201 217.76 186.595 216.524 183.387 216.524H175.776C171.926 216.524 170 218.86 170 223.531V225.169C170 228.991 171.828 230.902 175.491 230.902H178.965C179.665 230.902 180.383 230.777 181.116 230.523C181.857 230.261 182.583 229.836 183.297 229.249L186.095 226.928Z" fill="white"/>
<path d="M210.066 250.816H216.819C220.67 250.816 222.595 248.905 222.595 245.083V222.06C222.595 218.37 220.632 216.524 216.714 216.524H210.171C206.309 216.524 204.38 218.37 204.38 222.06V245.28C204.38 248.973 206.275 250.816 210.066 250.816ZM229.334 247.813C229.334 252.211 226.732 254.41 221.527 254.41H205.448C200.243 254.41 197.641 252.211 197.641 247.813V219.542C197.641 215.015 200.243 212.747 205.448 212.747H221.437C226.702 212.747 229.334 215.015 229.334 219.542V247.813Z" fill="white"/>
<path d="M248.792 241.109C248.34 240.654 247.923 240.427 247.543 240.427C247.152 240.427 246.765 240.654 246.385 241.109L238.97 252.272C237.292 254.213 235.878 255.184 234.728 255.184C234.085 255.184 233.502 254.896 232.983 254.319C232.472 253.735 232.216 253.148 232.216 252.56C232.156 252.044 232.284 251.529 232.607 251.013C232.927 250.497 233.276 249.917 233.66 249.269L241.271 237.606C242.625 235.797 243.302 234.178 243.302 232.752C243.302 231.266 242.595 229.745 241.181 228.187L233.66 217.889C233.276 217.305 232.927 216.767 232.607 216.281C232.284 215.796 232.156 215.295 232.216 214.78C232.216 214.203 232.441 213.608 232.893 212.99C233.344 212.376 233.923 212.065 234.638 212.065C235.848 212.065 237.292 213.005 238.97 214.886L246.385 224.987C246.633 225.374 247.051 225.563 247.634 225.563C247.953 225.563 248.34 225.374 248.792 224.987L256.117 214.886C257.591 213.005 258.967 212.065 260.253 212.065C261.024 212.065 261.615 212.376 262.028 212.99C262.45 213.608 262.66 214.241 262.66 214.886C262.72 215.402 262.638 215.887 262.419 216.342C262.198 216.789 261.863 217.305 261.412 217.889L253.996 228.187C252.451 229.745 251.68 231.266 251.68 232.752C251.68 234.239 252.417 235.858 253.891 237.606L261.412 249.269C261.863 249.917 262.198 250.482 262.419 250.967C262.638 251.453 262.72 251.953 262.66 252.469C262.66 253.178 262.404 253.811 261.893 254.365C261.382 254.911 260.803 255.184 260.163 255.184C258.937 255.184 257.591 254.213 256.117 252.272L248.792 241.109Z" fill="white"/>
<path d="M108.931 275.274C109.63 275.274 110.228 275.028 110.721 274.531C111.221 274.027 111.473 273.424 111.473 272.726V269.799C111.473 269.094 111.221 268.491 110.721 267.994C110.228 267.501 109.63 267.251 108.931 267.251H101.981V275.274H108.931ZM108.931 274H103.245V268.51H108.931C109.28 268.51 109.581 268.639 109.833 268.889C110.081 269.143 110.209 269.446 110.209 269.799V272.726C110.209 273.083 110.081 273.386 109.833 273.636C109.581 273.879 109.28 274 108.931 274Z" fill="white"/>
<path d="M125.762 275.274H124.498V273.014C124.498 272.844 124.431 272.696 124.303 272.575C124.183 272.446 124.032 272.377 123.852 272.377H117.534V275.274H116.271V267.251H123.852C124.371 267.251 124.818 267.441 125.19 267.812C125.57 268.176 125.762 268.627 125.762 269.162V270.466C125.762 270.952 125.596 271.376 125.266 271.74C125.596 272.104 125.762 272.529 125.762 273.014V275.274ZM123.852 271.103C124.032 271.103 124.183 271.043 124.303 270.921C124.431 270.792 124.498 270.641 124.498 270.466V269.162C124.498 268.98 124.431 268.828 124.303 268.707C124.183 268.578 124.032 268.51 123.852 268.51H117.534V271.103H123.852Z" fill="white"/>
<path d="M137.238 275.274C137.938 275.274 138.536 275.028 139.028 274.531C139.517 274.027 139.765 273.424 139.765 272.726V269.799C139.765 269.094 139.517 268.491 139.028 267.994C138.536 267.501 137.938 267.251 137.238 267.251H132.816C132.113 267.251 131.511 267.501 131.011 267.994C130.519 268.491 130.274 269.094 130.274 269.799V272.726C130.274 273.424 130.519 274.027 131.011 274.531C131.511 275.028 132.113 275.274 132.816 275.274H137.238ZM137.238 274H132.816C132.463 274 132.162 273.879 131.914 273.636C131.673 273.386 131.553 273.083 131.553 272.726V269.799C131.553 269.446 131.673 269.143 131.914 268.889C132.162 268.639 132.463 268.51 132.816 268.51H137.238C137.588 268.51 137.885 268.639 138.126 268.889C138.374 269.143 138.502 269.446 138.502 269.799V272.726C138.502 273.083 138.374 273.386 138.126 273.636C137.885 273.879 137.588 274 137.238 274Z" fill="white"/>
<path d="M145.835 275.274H144.572V267.251H152.153C152.672 267.251 153.119 267.441 153.491 267.812C153.871 268.176 154.063 268.627 154.063 269.162V270.466C154.063 270.993 153.871 271.445 153.491 271.816C153.119 272.192 152.672 272.377 152.153 272.377H145.835V275.274ZM152.153 271.103C152.333 271.103 152.484 271.043 152.604 270.921C152.732 270.792 152.8 270.641 152.8 270.466V269.162C152.8 268.98 152.732 268.828 152.604 268.707C152.484 268.578 152.333 268.51 152.153 268.51H145.835V271.103H152.153Z" fill="white"/>
<path d="M168.464 275.274H167.201V268.51H163.591V267.251H172.074V268.51H168.464V275.274Z" fill="white"/>
<path d="M185.443 275.274H184.179V271.892H177.471V275.274H176.207V267.251H177.471V270.618H184.179V267.251H185.443V275.274Z" fill="white"/>
<path d="M199.378 275.274H190.519V267.251H199.378V268.51H191.782V270.618H198.476V271.892H191.782V274H199.378V275.274Z" fill="white"/>
<path d="M217.433 275.274H209.852V267.251H217.433C217.952 267.251 218.4 267.441 218.772 267.812C219.152 268.176 219.344 268.627 219.344 269.162V269.981C219.344 270.478 219.182 270.902 218.862 271.255C219.182 271.619 219.344 272.044 219.344 272.529V273.363C219.344 273.89 219.152 274.341 218.772 274.713C218.4 275.088 217.952 275.274 217.433 275.274ZM217.463 270.618C217.633 270.61 217.779 270.542 217.9 270.421C218.02 270.3 218.08 270.155 218.08 269.981V269.162C218.08 268.98 218.012 268.828 217.885 268.707C217.764 268.578 217.614 268.51 217.433 268.51H211.116V270.618H217.463ZM217.433 274C217.614 274 217.764 273.94 217.885 273.818C218.012 273.689 218.08 273.538 218.08 273.363V272.529C218.08 272.358 218.02 272.211 217.9 272.089C217.779 271.968 217.633 271.903 217.463 271.892H211.116V274H217.433Z" fill="white"/>
<path d="M233.001 275.274H224.142V267.251H233.001V268.51H225.405V270.618H232.099V271.892H225.405V274H233.001V275.274Z" fill="white"/>
<path d="M248.297 275.274H246.763L245.59 273.53H239.543L238.385 275.274H236.85L242.235 267.251H242.912L248.297 275.274ZM244.747 272.256L242.566 269.026L240.4 272.256H244.747Z" fill="white"/>
<path d="M256.358 275.274H255.094V268.51H251.484V267.251H259.968V268.51H256.358V275.274Z" fill="white"/>
<mask id="mask0_25_292" style="mask-type:luminance" maskUnits="userSpaceOnUse" x="130" y="96" width="101" height="101">
<path d="M130.836 96.388H230.472V196.852H130.836V96.388Z" fill="white"/>
</mask>
<g mask="url(#mask0_25_292)">
<mask id="mask1_25_292" style="mask-type:luminance" maskUnits="userSpaceOnUse" x="130" y="96" width="101" height="101">
<path fill-rule="evenodd" clip-rule="evenodd" d="M177.484 122.167C177.165 122.209 176.819 122.262 176.446 122.327C175.875 122.425 175.322 122.281 174.882 121.967C174.446 121.656 174.126 121.174 174.028 120.602V120.594C173.934 120.021 174.077 119.464 174.389 119.024C174.698 118.581 175.172 118.258 175.739 118.16H175.743C176.119 118.095 176.525 118.031 176.965 117.974C177.409 117.917 177.819 117.872 178.187 117.841C178.56 117.807 178.97 117.781 179.417 117.762C179.868 117.743 180.278 117.735 180.658 117.735C182.565 117.735 184.434 117.925 186.242 118.285C188.096 118.656 189.89 119.21 191.605 119.927H191.608C193.353 120.655 195.012 121.553 196.568 122.6C198.133 123.658 199.588 124.86 200.912 126.198V126.194L200.915 126.198C201.322 126.611 201.528 127.154 201.528 127.692C201.528 128.23 201.325 128.773 200.915 129.186L200.912 129.19H200.908C200.498 129.603 199.964 129.808 199.43 129.808C198.892 129.808 198.358 129.603 197.948 129.19H197.945V129.186C196.809 128.041 195.564 127.009 194.229 126.107C192.906 125.216 191.496 124.45 190.014 123.832C188.562 123.225 187.032 122.755 185.441 122.437C183.896 122.13 182.298 121.967 180.654 121.967C180.256 121.967 179.898 121.974 179.583 121.989C179.267 122.001 178.921 122.027 178.537 122.058H178.533C178.142 122.092 177.793 122.13 177.484 122.167ZM180.654 140.364C181.489 140.364 182.294 140.534 183.027 140.841C183.787 141.16 184.471 141.623 185.039 142.199C185.434 142.597 185.776 143.048 186.054 143.545C186.223 143.848 186.37 144.171 186.49 144.504H228.37C228.953 144.504 229.476 144.739 229.856 145.122C230.235 145.505 230.469 146.036 230.469 146.62C230.469 153.418 229.126 159.906 226.697 165.829C224.166 171.979 220.47 177.511 215.878 182.14C211.29 186.766 205.8 190.497 199.701 193.045C193.831 195.498 187.393 196.852 180.651 196.852C173.908 196.852 167.474 195.498 161.604 193.045C155.501 190.497 150.014 186.766 145.427 182.14C140.835 177.511 137.139 171.979 134.608 165.829C132.179 159.906 130.833 153.418 130.833 146.62C130.833 139.821 132.179 133.334 134.608 127.411C137.139 121.261 140.839 115.729 145.427 111.1C150.018 106.474 155.501 102.743 161.604 100.191C167.478 97.7416 173.912 96.388 180.651 96.388C183.975 96.388 187.227 96.7178 190.375 97.3472C193.598 97.9918 196.719 98.9511 199.697 100.199C201.299 100.866 202.848 101.613 204.349 102.428C205.819 103.232 207.244 104.108 208.624 105.052C208.715 105.075 208.801 105.105 208.891 105.143C209.038 105.204 209.177 105.279 209.309 105.374H209.305C209.899 105.803 210.474 106.239 211.035 106.686C211.587 107.13 212.144 107.6 212.704 108.093H212.708C212.949 108.309 213.204 108.54 213.475 108.794C213.712 109.014 213.957 109.245 214.208 109.488C214.479 109.738 214.761 110.004 215.051 110.284C215.37 110.592 215.645 110.865 215.878 111.096V111.1C215.972 111.198 216.059 111.304 216.134 111.414C216.186 111.49 216.228 111.566 216.265 111.646C222.102 118.179 230.683 132.591 230.375 141.008C230.356 141.592 230.1 142.115 229.709 142.479C229.314 142.847 228.784 143.063 228.205 143.044H228.201C227.622 143.022 227.107 142.768 226.742 142.369C226.377 141.975 226.163 141.437 226.185 140.857V140.853C226.46 133.319 218.101 119.847 212.749 114.034C212.52 113.784 212.294 113.549 212.08 113.325C211.851 113.09 211.625 112.859 211.396 112.635C209.452 110.842 207.349 109.219 205.116 107.782C202.901 106.36 200.554 105.124 198.099 104.1C195.388 102.963 192.53 102.087 189.57 101.495C186.686 100.923 183.704 100.619 180.647 100.619C174.461 100.619 168.572 101.859 163.198 104.1C157.622 106.428 152.598 109.848 148.39 114.091C144.178 118.338 140.79 123.4 138.481 129.027C136.255 134.441 135.025 140.383 135.025 146.616C135.025 152.853 136.255 158.795 138.481 164.209C140.79 169.833 144.178 174.898 148.39 179.145C152.598 183.388 157.622 186.804 163.198 189.136C168.572 191.377 174.461 192.617 180.647 192.617C186.833 192.617 192.725 191.377 198.095 189.136C203.672 186.804 208.696 183.388 212.904 179.145C216.965 175.05 220.263 170.193 222.564 164.801C224.689 159.834 225.967 154.416 226.223 148.736H202.209C201.976 151.159 201.352 153.468 200.4 155.595C199.317 158.018 197.806 160.205 195.967 162.06V162.063C193.974 164.073 191.586 165.696 188.931 166.803C186.374 167.868 183.58 168.456 180.647 168.456C177.717 168.456 174.92 167.868 172.366 166.803C169.711 165.692 167.324 164.073 165.331 162.063C163.338 160.054 161.728 157.646 160.63 154.969C159.57 152.391 158.987 149.57 158.987 146.616C158.987 143.662 159.57 140.841 160.63 138.267C161.728 135.586 163.338 133.182 165.331 131.173C167.324 129.163 169.711 127.54 172.366 126.429C174.92 125.364 177.717 124.772 180.647 124.772C182.087 124.772 183.497 124.916 184.866 125.189C186.269 125.47 187.626 125.891 188.923 126.433H188.927C190.247 126.983 191.503 127.662 192.68 128.458C193.868 129.258 194.97 130.168 195.963 131.173C196.373 131.586 196.58 132.128 196.58 132.667C196.58 133.209 196.373 133.747 195.963 134.164C195.549 134.578 195.015 134.786 194.478 134.786C193.944 134.786 193.406 134.578 192.996 134.164C192.176 133.342 191.289 132.602 190.341 131.961C189.397 131.324 188.389 130.778 187.333 130.339C186.299 129.902 185.208 129.569 184.069 129.341C182.967 129.121 181.824 129.008 180.647 129.008C178.278 129.008 176.021 129.482 173.968 130.342C171.832 131.233 169.911 132.541 168.298 134.164C166.684 135.791 165.387 137.728 164.503 139.882C163.653 141.952 163.183 144.227 163.183 146.62C163.183 149.009 163.653 151.284 164.503 153.354C165.391 155.508 166.684 157.445 168.298 159.072C169.911 160.695 171.832 162.003 173.968 162.898C176.021 163.754 178.278 164.228 180.647 164.228C183.02 164.228 185.276 163.754 187.329 162.898C189.465 162.003 191.387 160.695 193 159.072C194.466 157.589 195.673 155.853 196.542 153.926C197.275 152.315 197.768 150.571 197.986 148.736H186.487C186.366 149.069 186.22 149.392 186.047 149.695C185.772 150.188 185.43 150.639 185.035 151.037L185.031 151.041C184.46 151.617 183.775 152.084 183.023 152.398C182.29 152.706 181.485 152.876 180.651 152.876C179.812 152.876 179.011 152.706 178.278 152.398C177.522 152.084 176.837 151.617 176.266 151.041H176.262C175.694 150.465 175.232 149.778 174.916 149.009C174.611 148.269 174.446 147.462 174.446 146.616C174.446 145.774 174.611 144.963 174.916 144.224C175.232 143.461 175.694 142.775 176.266 142.195H176.262C176.834 141.619 177.518 141.156 178.278 140.838C179.011 140.531 179.812 140.364 180.651 140.364H180.654ZM189.826 184.404C190.807 184.161 191.8 183.873 192.793 183.539H192.797C193.342 183.357 193.914 183.418 194.395 183.661C194.872 183.903 195.26 184.332 195.44 184.885V184.889C195.621 185.443 195.561 186.019 195.32 186.501C195.079 186.986 194.654 187.377 194.105 187.559C193.052 187.911 191.962 188.226 190.83 188.503C189.732 188.772 188.615 188.999 187.476 189.185C186.336 189.367 185.197 189.507 184.069 189.598C182.933 189.689 181.794 189.739 180.654 189.739C177.804 189.739 175.014 189.454 172.31 188.916C169.542 188.359 166.865 187.536 164.308 186.467C161.698 185.378 159.224 184.04 156.907 182.478C154.568 180.904 152.395 179.103 150.421 177.109H150.417C150.007 176.692 149.804 176.153 149.804 175.615C149.804 175.076 150.007 174.534 150.417 174.121V174.117H150.421C150.83 173.704 151.364 173.499 151.902 173.499C152.436 173.499 152.974 173.704 153.384 174.117C155.181 175.93 157.144 177.556 159.242 178.974C161.326 180.377 163.556 181.587 165.902 182.565V182.569C168.192 183.524 170.606 184.264 173.107 184.764C175.544 185.249 178.067 185.503 180.654 185.503C181.715 185.503 182.753 185.462 183.772 185.382C184.817 185.299 185.836 185.177 186.821 185.014C187.833 184.851 188.833 184.647 189.826 184.404ZM174.769 108.184C174.1 108.286 173.457 108.4 172.851 108.529H172.833C172.272 108.639 171.72 108.514 171.276 108.218C170.832 107.922 170.501 107.456 170.385 106.887H170.381V106.879C170.268 106.307 170.392 105.742 170.685 105.295C170.979 104.843 171.441 104.51 172.009 104.392V104.388H172.013C172.742 104.237 173.453 104.108 174.141 104.002C174.833 103.899 175.555 103.804 176.307 103.729C177.041 103.653 177.774 103.596 178.496 103.558C179.244 103.52 179.962 103.501 180.654 103.501C183.505 103.501 186.295 103.785 188.995 104.324C191.763 104.877 194.44 105.704 196.997 106.773C199.607 107.862 202.085 109.2 204.398 110.762C206.737 112.339 208.91 114.137 210.888 116.131H210.892V116.135C211.302 116.548 211.505 117.087 211.505 117.625C211.505 118.163 211.302 118.706 210.892 119.119V119.123H210.884C210.478 119.536 209.944 119.741 209.406 119.741C208.872 119.741 208.335 119.536 207.925 119.123H207.921V119.119C206.124 117.31 204.161 115.68 202.062 114.262C199.975 112.855 197.749 111.649 195.406 110.671C193.113 109.716 190.702 108.972 188.198 108.476C185.761 107.99 183.238 107.733 180.651 107.733C179.947 107.733 179.285 107.748 178.661 107.778C178.003 107.812 177.353 107.862 176.717 107.926C176.089 107.99 175.439 108.074 174.769 108.176V108.184ZM188.431 177.416C189.281 177.2 190.115 176.946 190.939 176.658H190.943C191.488 176.472 192.056 176.525 192.541 176.764C193.022 177.003 193.413 177.423 193.601 177.973C193.789 178.523 193.737 179.099 193.5 179.588C193.263 180.074 192.846 180.472 192.3 180.662C191.379 180.98 190.435 181.264 189.469 181.511C188.521 181.754 187.555 181.958 186.569 182.125C185.584 182.288 184.599 182.413 183.614 182.497C182.632 182.58 181.643 182.622 180.651 182.622C178.27 182.622 175.942 182.383 173.686 181.936C171.374 181.469 169.136 180.783 167 179.888C164.823 178.978 162.758 177.863 160.826 176.559C158.87 175.243 157.058 173.742 155.407 172.077L155.403 172.073C154.993 171.66 154.79 171.122 154.79 170.579C154.79 170.041 154.997 169.499 155.407 169.086H155.403L155.407 169.082C155.82 168.672 156.354 168.464 156.888 168.464C157.422 168.464 157.96 168.668 158.37 169.082L158.374 169.086H158.37C159.837 170.564 161.439 171.891 163.161 173.055C164.864 174.204 166.684 175.19 168.595 175.99H168.598C170.475 176.771 172.442 177.378 174.487 177.784C176.476 178.182 178.537 178.39 180.651 178.39C181.546 178.39 182.425 178.352 183.287 178.28H183.29C184.174 178.208 185.035 178.098 185.878 177.958H185.881C186.724 177.814 187.573 177.636 188.427 177.416H188.431ZM176.153 115.168C175.657 115.24 175.157 115.327 174.66 115.422H174.656C174.089 115.532 173.532 115.399 173.088 115.096C172.645 114.789 172.314 114.319 172.205 113.75V113.739C172.099 113.17 172.231 112.609 172.532 112.161C172.833 111.714 173.303 111.38 173.867 111.27H173.87C174.42 111.164 174.976 111.069 175.544 110.99C176.085 110.91 176.649 110.846 177.244 110.789C177.826 110.732 178.398 110.69 178.962 110.664C179.56 110.633 180.128 110.618 180.658 110.618C183.038 110.618 185.366 110.853 187.622 111.304C189.931 111.767 192.169 112.457 194.305 113.348C196.482 114.258 198.55 115.377 200.483 116.681C202.442 118 204.258 119.502 205.905 121.163V121.166C206.315 121.58 206.518 122.118 206.518 122.66C206.518 123.199 206.315 123.741 205.905 124.154H205.902C205.492 124.571 204.954 124.776 204.42 124.776C203.886 124.776 203.348 124.571 202.939 124.154C201.472 122.679 199.87 121.348 198.148 120.184C196.444 119.036 194.624 118.05 192.714 117.253C190.841 116.469 188.871 115.866 186.821 115.456C184.832 115.058 182.771 114.853 180.658 114.853C180.098 114.853 179.583 114.865 179.113 114.884C178.605 114.91 178.116 114.944 177.638 114.99C177.161 115.035 176.668 115.096 176.153 115.168ZM187.036 170.428C187.724 170.242 188.401 170.026 189.063 169.779H189.066C189.608 169.582 190.179 169.62 190.665 169.848C191.153 170.075 191.556 170.488 191.755 171.038V171.042C191.954 171.588 191.913 172.164 191.687 172.654C191.462 173.143 191.052 173.548 190.507 173.749C189.724 174.041 188.923 174.299 188.111 174.519C187.306 174.735 186.49 174.921 185.663 175.069C184.84 175.213 184.009 175.323 183.17 175.399C182.339 175.471 181.5 175.509 180.654 175.509C178.748 175.509 176.879 175.319 175.066 174.955C173.216 174.587 171.422 174.034 169.708 173.317H169.704C167.959 172.585 166.297 171.687 164.74 170.64C163.176 169.586 161.721 168.38 160.401 167.046H160.397V167.042C159.987 166.629 159.784 166.09 159.784 165.552C159.784 165.013 159.987 164.471 160.397 164.058L160.401 164.05H160.404C160.811 163.641 161.348 163.436 161.882 163.436V163.432C162.416 163.432 162.954 163.641 163.364 164.05L163.368 164.054V164.058C164.503 165.203 165.744 166.234 167.079 167.133C168.403 168.028 169.817 168.794 171.298 169.412C172.75 170.018 174.277 170.488 175.867 170.803C177.413 171.114 179.015 171.273 180.654 171.273C181.384 171.273 182.102 171.243 182.813 171.179C183.535 171.118 184.245 171.023 184.941 170.898C185.656 170.773 186.351 170.614 187.036 170.428Z" fill="white"/>
</mask>
<g mask="url(#mask1_25_292)">
<path d="M130.836 96.388V196.852H230.472V96.388H130.836Z" fill="url(#paint0_linear_25_292)"/>
</g>
</g>
</g>
<defs>
<linearGradient id="paint0_linear_25_292" x1="225.627" y1="92.3232" x2="134.998" y2="200.344" gradientUnits="userSpaceOnUse">
<stop stop-color="#D5F979"/>
<stop offset="0.25" stop-color="#D5F979"/>
<stop offset="0.28125" stop-color="#D5F979"/>
<stop offset="0.289063" stop-color="#D4F97A"/>
<stop offset="0.296875" stop-color="#D4F97B"/>
<stop offset="0.304688" stop-color="#D3F97B"/>
<stop offset="0.3125" stop-color="#D3F97C"/>
<stop offset="0.320312" stop-color="#D2F97D"/>
<stop offset="0.328125" stop-color="#D2F97E"/>
<stop offset="0.335938" stop-color="#D1F97E"/>
<stop offset="0.34375" stop-color="#D1F87F"/>
<stop offset="0.351563" stop-color="#D0F880"/>
<stop offset="0.359375" stop-color="#D0F880"/>
<stop offset="0.367188" stop-color="#CFF881"/>
<stop offset="0.375" stop-color="#CEF882"/>
<stop offset="0.382813" stop-color="#CEF883"/>
<stop offset="0.390625" stop-color="#CDF883"/>
<stop offset="0.398438" stop-color="#CDF884"/>
<stop offset="0.40625" stop-color="#CCF885"/>
<stop offset="0.414063" stop-color="#CCF885"/>
<stop offset="0.421875" stop-color="#CBF886"/>
<stop offset="0.429688" stop-color="#CBF887"/>
<stop offset="0.4375" stop-color="#CAF887"/>
<stop offset="0.445312" stop-color="#CAF888"/>
<stop offset="0.453125" stop-color="#C9F889"/>
<stop offset="0.454174" stop-color="#C9F88A"/>
<stop offset="0.460938" stop-color="#C8F88A"/>
<stop offset="0.46875" stop-color="#C8F88A"/>
<stop offset="0.476562" stop-color="#C8F88B"/>
<stop offset="0.484375" stop-color="#C7F88C"/>
<stop offset="0.492188" stop-color="#C7F88C"/>
<stop offset="0.5" stop-color="#C6F88D"/>
<stop offset="0.507812" stop-color="#C5F88E"/>
<stop offset="0.515625" stop-color="#C5F78F"/>
<stop offset="0.523438" stop-color="#C4F78F"/>
<stop offset="0.53125" stop-color="#C4F790"/>
<stop offset="0.539062" stop-color="#C3F791"/>
<stop offset="0.545826" stop-color="#C3F791"/>
<stop offset="0.546875" stop-color="#C3F792"/>
<stop offset="0.554688" stop-color="#C2F792"/>
<stop offset="0.5625" stop-color="#C2F793"/>
<stop offset="0.570312" stop-color="#C1F794"/>
<stop offset="0.578125" stop-color="#C1F794"/>
<stop offset="0.585938" stop-color="#C0F795"/>
<stop offset="0.59375" stop-color="#C0F796"/>
<stop offset="0.601563" stop-color="#BFF796"/>
<stop offset="0.609375" stop-color="#BFF797"/>
<stop offset="0.617188" stop-color="#BEF798"/>
<stop offset="0.625" stop-color="#BEF799"/>
<stop offset="0.632812" stop-color="#BDF799"/>
<stop offset="0.640625" stop-color="#BCF79A"/>
<stop offset="0.648438" stop-color="#BCF79B"/>
<stop offset="0.65625" stop-color="#BBF79B"/>
<stop offset="0.664062" stop-color="#BBF79C"/>
<stop offset="0.671875" stop-color="#BAF79D"/>
<stop offset="0.679688" stop-color="#BAF79D"/>
<stop offset="0.6875" stop-color="#B9F69E"/>
<stop offset="0.695313" stop-color="#B9F69F"/>
<stop offset="0.703125" stop-color="#B8F6A0"/>
<stop offset="0.710938" stop-color="#B8F6A0"/>
<stop offset="0.71875" stop-color="#B7F6A1"/>
<stop offset="0.726563" stop-color="#B7F6A2"/>
<stop offset="0.734375" stop-color="#B6F6A2"/>
<stop offset="0.742188" stop-color="#B6F6A3"/>
<stop offset="0.75" stop-color="#B5F6A4"/>
<stop offset="0.757812" stop-color="#B5F6A5"/>
<stop offset="0.765625" stop-color="#B4F6A5"/>
<stop offset="0.773438" stop-color="#B4F6A6"/>
<stop offset="0.78125" stop-color="#B3F6A7"/>
<stop offset="0.789062" stop-color="#B2F6A7"/>
<stop offset="0.796875" stop-color="#B2F6A8"/>
<stop offset="0.804688" stop-color="#B1F6A9"/>
<stop offset="0.8125" stop-color="#B1F6AA"/>
<stop offset="0.820313" stop-color="#B0F6AA"/>
<stop offset="0.828125" stop-color="#B0F6AB"/>
<stop offset="0.835938" stop-color="#AFF6AC"/>
<stop offset="0.84375" stop-color="#AFF6AC"/>
<stop offset="0.851563" stop-color="#AEF6AD"/>
<stop offset="0.859375" stop-color="#AEF5AE"/>
<stop offset="0.867188" stop-color="#ADF5AE"/>
<stop offset="0.875" stop-color="#ADF5AF"/>
<stop offset="0.882812" stop-color="#ACF5B0"/>
<stop offset="0.890625" stop-color="#ACF5B1"/>
<stop offset="0.898438" stop-color="#ABF5B1"/>
<stop offset="0.90625" stop-color="#ABF5B2"/>
<stop offset="0.914063" stop-color="#AAF5B3"/>
<stop offset="0.921875" stop-color="#A9F5B3"/>
<stop offset="0.9375" stop-color="#A9F5B4"/>
<stop offset="1" stop-color="#A9F5B4"/>
</linearGradient>
<clipPath id="clip0_25_292">
<rect width="361" height="364" fill="white"/>
</clipPath>
</defs>
</svg>
